<svg xmlns="http://www.w3.org/2000/svg" viewBox="0 0 64 64">
	<defs>
		<linearGradient id="g" x1="0" x2="1" y1="0" y2="1">
			<stop offset="0%" stop-color="#7c5cff"/>
			<stop offset="100%" stop-color="#19e3ff"/>
		</linearGradient>
	</defs>
	<rect x="4" y="4" width="56" height="56" rx="14" fill="#0f1324" />
	<path d="M18 44 L26 20 L34 44 L31 44 L29.6 40 H22.4 L21 44 Z M23.4 36 H28.6 L26 27.8 Z" fill="url(#g)"/>
	<path d="M40 20 H46 C50 20 52 22.3 52 26 C52 29.7 49.7 32 46 32 H43 V44 H40 V20 Z M46 29.6 C48.1 29.6 49.4 28.4 49.4 26 C49.4 23.6 48.1 22.4 46 22.4 H43 V29.6 H46 Z" fill="url(#g)"/>
</svg>